<svg width="410" height="579" viewBox="0 0 410 579" fill="none" xmlns="http://www.w3.org/2000/svg">
<path d="M148.904 99.2642C148.904 84.5481 159.643 72.0337 174.189 69.7992L375.005 38.9491C393.061 36.1753 409.342 50.1462 409.342 68.414V508.522C409.342 526.79 393.061 540.761 375.005 537.987L174.188 507.137C159.643 504.903 148.904 492.388 148.904 477.672V99.2642Z" fill="url(#paint0_linear_219_4)" fill-opacity="0.5" stroke="url(#paint1_linear_219_4)" stroke-width="1.00272"/>
<path d="M77.6971 89.6884C77.6971 74.1831 89.0116 60.9977 104.337 58.6433L315.653 26.1803C334.677 23.2578 351.831 37.9779 351.831 57.2254V520.343C351.831 539.591 334.677 554.311 315.653 551.388L104.337 518.925C89.0116 516.571 77.6971 503.385 77.6971 487.88V89.6884Z" fill="url(#paint2_linear_219_4)" fill-opacity="0.7" stroke="url(#paint3_linear_219_4)" stroke-width="0.974864"/>
<path d="M0.5 74.9605C0.5 58.257 12.6889 44.0525 29.1988 41.5162L256.679 6.57005C277.173 3.42162 295.653 19.2793 295.653 40.0143V538.557C295.653 559.292 277.173 575.15 256.679 572.001L29.1988 537.055C12.6889 534.519 0.5 520.314 0.5 503.611V74.9605Z" fill="black" stroke="#00FF0A"/>
<path d="M141.817 401.727V174.455H156.376V401.727H141.817ZM180.435 249.472C179.725 242.311 176.677 236.747 171.291 232.782C165.905 228.817 158.596 226.834 149.363 226.834C143.089 226.834 137.792 227.722 133.472 229.497C129.151 231.214 125.837 233.611 123.528 236.688C121.279 239.766 120.155 243.258 120.155 247.164C120.036 250.419 120.717 253.26 122.197 255.687C123.736 258.113 125.837 260.214 128.5 261.99C131.163 263.706 134.241 265.216 137.733 266.518C141.225 267.761 144.954 268.826 148.919 269.714L165.254 273.62C173.185 275.396 180.465 277.763 187.094 280.722C193.723 283.682 199.464 287.321 204.317 291.642C209.17 295.963 212.928 301.053 215.592 306.912C218.314 312.771 219.705 319.489 219.764 327.065C219.705 338.192 216.864 347.839 211.241 356.006C205.678 364.115 197.629 370.418 187.094 374.916C176.618 379.355 163.982 381.575 149.185 381.575C134.507 381.575 121.723 379.326 110.833 374.827C100.002 370.329 91.5386 363.671 85.4425 354.852C79.4055 345.974 76.2391 334.996 75.9432 321.915H113.141C113.556 328.012 115.302 333.102 118.379 337.185C121.516 341.21 125.689 344.258 130.897 346.33C136.165 348.342 142.113 349.348 148.741 349.348C155.252 349.348 160.904 348.401 165.698 346.507C170.551 344.613 174.31 341.979 176.973 338.606C179.636 335.232 180.968 331.356 180.968 326.976C180.968 322.892 179.755 319.459 177.328 316.678C174.961 313.896 171.469 311.528 166.852 309.575C162.295 307.622 156.702 305.847 150.073 304.249L130.276 299.277C114.946 295.548 102.843 289.719 93.9652 281.788C85.0874 273.857 80.678 263.174 80.7372 249.739C80.678 238.73 83.6077 229.112 89.5263 220.886C95.504 212.659 103.701 206.237 114.118 201.621C124.535 197.004 136.372 194.696 149.629 194.696C163.124 194.696 174.902 197.004 184.963 201.621C195.084 206.237 202.955 212.659 208.578 220.886C214.201 229.112 217.101 238.641 217.278 249.472H180.435Z" fill="#02AE09"/>
<defs>
<linearGradient id="paint0_linear_219_4" x1="148.399" y1="33.2563" x2="410.11" y2="543.642" gradientUnits="userSpaceOnUse">
<stop stop-color="#3DAA64"/>
<stop offset="1" stop-color="#75F19E" stop-opacity="0.2"/>
</linearGradient>
<linearGradient id="paint1_linear_219_4" x1="58.154" y1="87.4034" x2="410.11" y2="543.642" gradientUnits="userSpaceOnUse">
<stop stop-color="#21AA51"/>
<stop offset="1" stop-color="#296D41" stop-opacity="0.3"/>
</linearGradient>
<linearGradient id="paint2_linear_219_4" x1="77.2097" y1="20.0544" x2="352.121" y2="557.205" gradientUnits="userSpaceOnUse">
<stop stop-color="#26924D"/>
<stop offset="1" stop-color="#26924D" stop-opacity="0.2"/>
</linearGradient>
<linearGradient id="paint3_linear_219_4" x1="77.2097" y1="20.0544" x2="352.121" y2="557.205" gradientUnits="userSpaceOnUse">
<stop stop-color="#216C3C"/>
<stop offset="1" stop-color="#20673A" stop-opacity="0.3"/>
</linearGradient>
</defs>
</svg>
