<svg width="82" height="94" viewBox="0 0 82 94" fill="none" xmlns="http://www.w3.org/2000/svg">
<path d="M72.6958 31.9408C72.6958 23.4695 69.3306 15.3453 63.3406 9.35523C57.3505 3.36518 49.2262 6.39559e-07 40.755 0C32.2838 -6.39559e-07 24.1596 3.36518 18.1695 9.35523C12.1794 15.3453 8.81427 23.4695 8.81427 31.9408L16.6802 31.9408C16.6802 25.5557 19.2167 19.4322 23.7316 14.9173C28.2465 10.4024 34.37 7.86595 40.755 7.86595C47.1401 7.86595 53.2636 10.4024 57.7785 14.9173C62.2934 19.4322 64.8298 25.5557 64.8298 31.9408H72.6958Z" fill="url(#paint0_linear_1_3586)"/>
<path d="M60.7446 31.7859C60.7446 26.4823 58.6378 21.3959 54.8876 17.6456C51.1374 13.8954 46.051 11.7886 40.7474 11.7886C35.4437 11.7886 30.3574 13.8954 26.6071 17.6456C22.8569 21.3959 20.7501 26.4823 20.7501 31.7859H25.6747C25.6747 27.7884 27.2627 23.9546 30.0894 21.1279C32.9161 18.3012 36.7498 16.7132 40.7474 16.7132C44.7449 16.7132 48.5786 18.3012 51.4053 21.1279C54.232 23.9546 54.8876 27.7884 54.8876 31.7859L60.7446 31.7859Z" fill="url(#paint1_linear_1_3586)"/>
<path d="M60.7326 39.1673C60.7326 44.4709 58.6257 49.5573 54.8755 53.3075C51.1253 57.0577 46.0389 59.1646 40.7353 59.1646C35.4317 59.1646 30.3453 57.0577 26.595 53.3075C22.8448 49.5573 20.738 44.4709 20.738 39.1673H25.6626C25.6626 43.1648 27.2506 46.9985 30.0773 49.8252C32.904 52.6519 36.7378 54.2399 40.7353 54.2399C44.7328 54.2399 48.5666 52.6519 51.3932 49.8252C54.2199 46.9985 36.8228 43.1648 36.8228 39.1673H60.7326Z" fill="url(#paint2_linear_1_3586)"/>
<path d="M8.79475 39.1672C8.79475 47.6384 12.1599 55.7626 18.15 61.7527C24.14 67.7427 32.2643 71.1079 40.7355 71.1079C49.2067 71.1079 57.331 67.7427 63.321 61.7527C69.3111 55.7626 72.6763 47.6384 72.6763 39.1672L64.8103 39.1672C64.8103 45.5522 62.2739 51.6757 57.759 56.1906C53.2441 60.7055 47.1205 63.242 40.7355 63.242C34.3505 63.242 28.2269 60.7055 23.712 56.1906C19.1971 51.6757 16.6607 45.5522 16.6607 39.1672H8.79475Z" fill="url(#paint3_linear_1_3586)"/>
<path d="M20.7501 31.7119H37.5193C38.9864 31.7119 40.1758 32.9013 40.1758 34.3684V36.5268H20.7501V31.7119Z" fill="url(#paint4_linear_1_3586)"/>
<path d="M22.8434 28.0715L41.7155 28.0715C43.1827 28.0715 44.3721 26.8821 44.3721 25.415V23.2566L22.9677 22.5945C20.0182 29.074 21.5806 28.0962 22.8434 28.0715Z" fill="url(#paint5_linear_1_3586)"/>
<path d="M7.14274 89.2141C5.92094 89.2141 4.82955 88.9808 3.86858 88.514C2.92134 88.0472 2.18002 87.3952 1.64463 86.5577C1.10923 85.7203 0.841533 84.7662 0.841533 83.6954V79.9065C0.841533 78.8357 1.10237 77.8884 1.62404 77.0648C2.15943 76.2273 2.89389 75.5821 3.8274 75.1291C4.76091 74.6623 5.8317 74.429 7.03978 74.429C8.24785 74.429 9.31865 74.6143 10.2522 74.9849C11.1994 75.3419 11.9339 75.8429 12.4555 76.4882C12.9772 77.1334 13.238 77.8747 13.238 78.7121C13.238 79.2201 13.0664 79.6182 12.7232 79.9065C12.3937 80.1948 11.9476 80.3389 11.3847 80.3389C11.1102 80.3389 10.8081 80.2977 10.4787 80.2154C10.5061 79.8859 10.5199 79.5633 10.5199 79.2475C10.5199 78.5199 10.1972 77.9296 9.55203 77.4766C8.9068 77.0236 8.06939 76.7971 7.03978 76.7971C6.0239 76.7971 5.19335 77.0853 4.54813 77.6619C3.91663 78.2385 3.60089 78.9867 3.60089 79.9065V83.6954C3.60089 84.6152 3.93036 85.3703 4.58931 85.9606C5.24826 86.5509 6.0994 86.846 7.14274 86.846C8.15862 86.846 8.98231 86.6127 9.6138 86.1459C10.259 85.6654 10.5816 85.0477 10.5816 84.2926V83.6542H8.81071C8.28904 83.6542 7.86347 83.4552 7.53399 83.0571C7.20452 82.6452 7.03978 82.1167 7.03978 81.4715H12.0437C12.4281 81.4715 12.7369 81.5882 12.9703 81.8215C13.2037 82.0549 13.3204 82.3638 13.3204 82.7482V84.3544C13.3204 85.3016 13.0596 86.1459 12.5379 86.8872C12.0162 87.6148 11.2818 88.1845 10.3345 88.5964C9.40102 89.0082 8.33709 89.2141 7.14274 89.2141ZM20.6414 80.7713C19.8314 80.7713 19.1725 80.991 18.6645 81.4303C18.1566 81.8559 17.9026 82.3913 17.9026 83.0365V87.6491C17.9026 88.1983 17.6967 88.5964 17.2849 88.8435C16.873 89.0906 16.2278 89.2141 15.3492 89.2141V80.5242C15.3492 79.8927 15.5483 79.4054 15.9464 79.0622C16.3582 78.719 16.976 78.5474 17.7997 78.5474V79.7623C17.5938 79.9957 17.429 80.2222 17.3055 80.4419L17.429 80.5242C18.2939 79.2063 19.3784 78.5474 20.6826 78.5474C21.2729 78.5474 21.7191 78.7053 22.0211 79.021C22.3231 79.323 22.4741 79.7074 22.4741 80.1742C22.4741 80.5311 22.378 80.8331 22.1858 81.0802C21.8152 80.8743 21.3003 80.7713 20.6414 80.7713ZM27.1941 89.2141C26.3017 89.2141 25.4918 89.0563 24.7642 88.7405C24.0503 88.411 23.4875 87.958 23.0756 87.3814C22.6638 86.8049 22.4579 86.1528 22.4579 85.4252V82.5217C22.4579 81.7804 22.6569 81.1077 23.055 80.5036C23.4669 79.8996 24.0297 79.426 24.7436 79.0828C25.4574 78.7259 26.2743 78.5474 27.1941 78.5474C28.1138 78.5474 28.9307 78.7259 29.6445 79.0828C30.3721 79.426 30.935 79.8996 31.3331 80.5036C31.7449 81.1077 31.9508 81.7804 31.9508 82.5217V85.4252C31.9508 86.1528 31.7381 86.8049 31.3125 87.3814C30.9006 87.958 30.3309 88.411 29.6033 88.7405C28.8895 89.0563 28.0864 89.2141 27.1941 89.2141ZM27.1941 87.0108C27.8805 87.0108 28.4159 86.8529 28.8002 86.5372C29.1984 86.2214 29.3974 85.7958 29.3974 85.2604V82.6452C29.3974 82.0824 29.1984 81.6294 28.8002 81.2861C28.4159 80.9292 27.8805 80.7508 27.1941 80.7508C26.5214 80.7508 25.986 80.9292 25.5879 81.2861C25.1897 81.6294 24.9907 82.0824 24.9907 82.6452V85.2604C24.9907 85.7958 25.1897 86.2214 25.5879 86.5372C25.986 86.8529 26.5214 87.0108 27.1941 87.0108ZM37.391 89.2141C36.7595 89.2141 36.231 89.0906 35.8054 88.8435C35.3799 88.5826 35.0984 88.212 34.9612 87.7315L32.5931 78.7739C32.7029 78.7053 32.8676 78.6503 33.0873 78.6092C33.3069 78.568 33.5197 78.5474 33.7256 78.5474C34.1375 78.5474 34.4807 78.6435 34.7552 78.8357C35.0435 79.0141 35.222 79.2544 35.2906 79.5564L36.5056 85.0957L36.2379 86.2283L36.3614 86.2695L38.2147 79.3917C38.2971 79.1446 38.4412 78.9455 38.6472 78.7945C38.8531 78.6298 39.1208 78.5474 39.4503 78.5474C39.7935 78.5474 40.0749 78.6298 40.2945 78.7945C40.5142 78.9455 40.6583 79.1446 40.727 79.3917L42.2096 85.2398L41.9007 86.4342L42.0243 86.4754L43.6099 79.5564C43.6785 79.2544 43.857 79.0141 44.1453 78.8357C44.4336 78.6435 44.7836 78.5474 45.1955 78.5474C45.4151 78.5474 45.6279 78.568 45.8338 78.6092C46.0535 78.6503 46.2182 78.7053 46.3281 78.7739L43.9599 87.7315C43.8364 88.1983 43.5344 88.5621 43.0539 88.8229C42.5734 89.0837 42.0106 89.2141 41.3653 89.2141L39.2649 80.9361L39.162 80.9773L39.3885 81.8627L37.391 89.2141ZM53.6177 75.8704C53.6177 75.5272 53.7481 75.232 54.0089 74.9849C54.2835 74.7378 54.613 74.6143 54.9974 74.6143H64.3256C64.3256 75.438 64.1815 76.042 63.8932 76.4264C63.6186 76.7971 63.1656 76.9824 62.5341 76.9824H56.377V80.4625H61.8546C61.8546 81.2861 61.7104 81.8902 61.4221 82.2746C61.1476 82.6452 60.6945 82.8306 60.063 82.8306H56.377V87.2579C56.377 87.9443 56.1574 88.4454 55.7181 88.7611C55.2788 89.0631 54.5787 89.2141 53.6177 89.2141V75.8704ZM66.6284 77.5796C66.1342 77.5796 65.7223 77.4354 65.3929 77.1471C65.0771 76.8451 64.9193 76.4607 64.9193 75.994C64.9193 75.5409 65.0771 75.1703 65.3929 74.882C65.7223 74.58 66.1342 74.429 66.6284 74.429C67.1226 74.429 67.5276 74.58 67.8433 74.882C68.1728 75.1703 68.3376 75.5409 68.3376 75.994C68.3376 76.4607 68.1728 76.8451 67.8433 77.1471C67.5276 77.4354 67.1226 77.5796 66.6284 77.5796ZM65.3311 80.1124C65.3311 79.5495 65.5439 79.1514 65.9695 78.918C66.395 78.6709 67.0402 78.5474 67.9051 78.5474V87.6491C67.9051 88.1983 67.6923 88.5964 67.2668 88.8435C66.8412 89.0906 66.196 89.2141 65.3311 89.2141V80.1124ZM70.7711 80.5242C70.7711 79.8927 70.9702 79.4054 71.3683 79.0622C71.7801 78.719 72.3979 78.5474 73.2216 78.5474V79.7829C73.0569 79.9751 72.8921 80.1948 72.7274 80.4419L72.8509 80.5242C73.2628 79.9065 73.7913 79.426 74.4365 79.0828C75.0818 78.7259 75.7956 78.5474 76.5781 78.5474C77.2783 78.5474 77.896 78.7053 78.4314 79.021C78.9668 79.3368 79.3787 79.7692 79.667 80.3183C79.969 80.8674 80.12 81.4852 80.12 82.1716V87.6491C80.12 88.1983 79.9072 88.5964 79.4816 88.8435C79.0561 89.0906 78.4108 89.2141 77.546 89.2141V82.5423C77.546 82.0206 77.3881 81.595 77.0723 81.2656C76.7703 80.9361 76.3242 80.7713 75.7338 80.7713C75.0337 80.7713 74.4571 80.991 74.0041 81.4303C73.5511 81.8559 73.3246 82.3913 73.3246 83.0365V87.6491C73.3246 88.1983 73.1186 88.5964 72.7068 88.8435C72.295 89.0906 71.6497 89.2141 70.7711 89.2141V80.5242Z" fill="url(#paint6_linear_1_3586)"/>
<defs>
<linearGradient id="paint0_linear_1_3586" x1="40.755" y1="0" x2="40.755" y2="63.8815" gradientUnits="userSpaceOnUse">
<stop stop-color="#00BE0D"/>
<stop offset="1" stop-color="#92B700"/>
</linearGradient>
<linearGradient id="paint1_linear_1_3586" x1="40.7474" y1="11.7886" x2="40.7474" y2="31.7859" gradientUnits="userSpaceOnUse">
<stop stop-color="#00BE0D"/>
<stop offset="1" stop-color="#92B700"/>
</linearGradient>
<linearGradient id="paint2_linear_1_3586" x1="40.7353" y1="59.1646" x2="40.7353" y2="39.1673" gradientUnits="userSpaceOnUse">
<stop stop-color="#00BE0D"/>
<stop offset="1" stop-color="#92B700"/>
</linearGradient>
<linearGradient id="paint3_linear_1_3586" x1="40.7355" y1="71.1079" x2="40.7355" y2="7.22639" gradientUnits="userSpaceOnUse">
<stop stop-color="#00BE0D"/>
<stop offset="1" stop-color="#92B700"/>
</linearGradient>
<linearGradient id="paint4_linear_1_3586" x1="30.4629" y1="31.7119" x2="30.4629" y2="36.5268" gradientUnits="userSpaceOnUse">
<stop stop-color="#00BE0D"/>
<stop offset="1" stop-color="#92B700"/>
</linearGradient>
<linearGradient id="paint5_linear_1_3586" x1="32.8273" y1="28.1377" x2="32.8273" y2="22.5945" gradientUnits="userSpaceOnUse">
<stop stop-color="#00BE0D"/>
<stop offset="1" stop-color="#92B700"/>
</linearGradient>
<linearGradient id="paint6_linear_1_3586" x1="40.9973" y1="67.0288" x2="40.9973" y2="94.0288" gradientUnits="userSpaceOnUse">
<stop stop-color="#00BE0D"/>
<stop offset="1" stop-color="#92B700"/>
</linearGradient>
</defs>
</svg>
