<svg width="149" height="172" viewBox="0 0 149 172" fill="none" xmlns="http://www.w3.org/2000/svg">
<path d="M132.923 58.4016C132.923 42.9126 126.77 28.0579 115.818 17.1054C104.865 6.15301 90.0105 1.16939e-06 74.5214 0C59.0323 -1.16939e-06 44.1777 6.15301 33.2252 17.1054C22.2728 28.0579 16.1198 42.9125 16.1198 58.4016H30.5022C30.5022 46.727 35.1399 35.5305 43.3951 27.2753C51.6503 19.0201 62.8468 14.3824 74.5214 14.3824C86.196 14.3824 97.3925 19.0201 105.648 27.2753C113.903 35.5305 118.541 46.727 118.541 58.4016H132.923Z" fill="url(#paint0_linear_1_2116)"/>
<path d="M111.074 58.118C111.074 48.4207 107.222 39.1205 100.365 32.2635C93.5078 25.4064 84.2077 21.5542 74.5104 21.5542C64.8131 21.5542 55.5129 25.4064 48.6559 32.2635C41.7989 39.1205 37.9466 48.4206 37.9466 58.118H46.9511C46.9511 50.8088 49.8546 43.7989 55.023 38.6306C60.1914 33.4622 67.2012 30.5586 74.5104 30.5586C81.8196 30.5586 88.8294 33.4622 93.9978 38.6306C99.1661 43.799 100.365 50.8088 100.365 58.118L111.074 58.118Z" fill="url(#paint1_linear_1_2116)"/>
<path d="M111.054 71.6145C111.054 81.3118 107.202 90.6119 100.345 97.4689C93.4876 104.326 84.1875 108.178 74.4902 108.178C64.7928 108.178 55.4927 104.326 48.6357 97.4689C41.7786 90.6119 37.9264 81.3118 37.9264 71.6145H46.9308C46.9308 78.9237 49.8344 85.9335 55.0028 91.1018C60.1711 96.2702 67.181 99.1738 74.4902 99.1738C81.7993 99.1738 88.8092 96.2702 93.9775 91.1018C99.1459 85.9335 67.3364 78.9236 67.3364 71.6145H111.054Z" fill="url(#paint2_linear_1_2116)"/>
<path d="M16.0879 71.614C16.0879 87.1031 22.2409 101.958 33.1933 112.91C44.1458 123.863 59.0004 130.016 74.4895 130.016C89.9786 130.016 104.833 123.863 115.786 112.91C126.738 101.958 132.891 87.1031 132.891 71.614H118.509C118.509 83.2886 113.871 94.4851 105.616 102.74C97.3606 110.996 86.1641 115.633 74.4895 115.633C62.8149 115.633 51.6184 110.996 43.3632 102.74C35.108 94.4851 30.4703 83.2886 30.4703 71.614H16.0879Z" fill="url(#paint3_linear_1_2116)"/>
<path d="M37.9466 57.9834H68.608C71.2906 57.9834 73.4653 60.1581 73.4653 62.8406V66.7872H37.9466V57.9834Z" fill="url(#paint4_linear_1_2116)"/>
<path d="M41.7726 51.3262L76.2792 51.3262C78.9617 51.3262 81.1364 49.1516 81.1364 46.469V42.5225L41.9999 41.3119C36.607 53.1592 39.4636 51.3713 41.7726 51.3262Z" fill="url(#paint5_linear_1_2116)"/>
<path d="M13.0651 161.897C10.8311 161.897 8.83555 161.471 7.07848 160.617C5.34651 159.764 3.99106 158.572 3.01212 157.04C2.03318 155.509 1.54371 153.765 1.54371 151.807V144.879C1.54371 142.921 2.02063 141.189 2.97447 139.683C3.95341 138.152 5.29631 136.972 7.00318 136.144C8.71004 135.29 10.6679 134.864 12.8768 134.864C15.0857 134.864 17.0436 135.203 18.7504 135.88C20.4824 136.533 21.8253 137.449 22.7791 138.629C23.733 139.809 24.2099 141.164 24.2099 142.695C24.2099 143.624 23.8961 144.352 23.2686 144.879C22.6662 145.406 21.8504 145.67 20.8213 145.67C20.3192 145.67 19.767 145.594 19.1646 145.444C19.2148 144.841 19.2399 144.251 19.2399 143.674C19.2399 142.344 18.65 141.264 17.4703 140.436C16.2905 139.608 14.7594 139.194 12.8768 139.194C11.0193 139.194 9.50072 139.721 8.32098 140.775C7.16633 141.829 6.58901 143.197 6.58901 144.879V151.807C6.58901 153.489 7.19143 154.869 8.39628 155.949C9.60113 157.028 11.1574 157.568 13.0651 157.568C14.9225 157.568 16.4286 157.141 17.5832 156.287C18.763 155.409 19.3529 154.279 19.3529 152.899V151.732H16.1148C15.161 151.732 14.3829 151.368 13.7804 150.64C13.178 149.887 12.8768 148.92 12.8768 147.741H22.0261C22.7289 147.741 23.2937 147.954 23.7204 148.381C24.1471 148.807 24.3605 149.372 24.3605 150.075V153.012C24.3605 154.744 23.8836 156.287 22.9298 157.643C21.9759 158.973 20.633 160.015 18.901 160.768C17.1942 161.521 15.2488 161.897 13.0651 161.897ZM37.7465 146.46C36.2655 146.46 35.0607 146.862 34.1319 147.665C33.2032 148.443 32.7388 149.422 32.7388 150.602V159.036C32.7388 160.04 32.3623 160.768 31.6093 161.22C30.8563 161.672 29.6765 161.897 28.0701 161.897V146.009C28.0701 144.854 28.434 143.963 29.162 143.335C29.915 142.708 31.0445 142.394 32.5506 142.394V144.615C32.1741 145.042 31.8729 145.456 31.6469 145.858L31.8729 146.009C33.4542 143.599 35.4372 142.394 37.8218 142.394C38.9011 142.394 39.7169 142.683 40.2691 143.26C40.8214 143.812 41.0975 144.515 41.0975 145.368C41.0975 146.021 40.9218 146.573 40.5704 147.025C39.8926 146.649 38.9513 146.46 37.7465 146.46ZM49.7276 161.897C48.096 161.897 46.6151 161.609 45.2847 161.031C43.9795 160.429 42.9503 159.601 42.1973 158.546C41.4443 157.492 41.0678 156.3 41.0678 154.97V149.661C41.0678 148.305 41.4317 147.075 42.1597 145.971C42.9127 144.866 43.9418 144 45.2471 143.373C46.5523 142.72 48.0458 142.394 49.7276 142.394C51.4094 142.394 52.9029 142.72 54.2081 143.373C55.5385 144 56.5676 144.866 57.2955 145.971C58.0486 147.075 58.4251 148.305 58.4251 149.661V154.97C58.4251 156.3 58.036 157.492 57.2579 158.546C56.5049 159.601 55.4632 160.429 54.1328 161.031C52.8276 161.609 51.3592 161.897 49.7276 161.897ZM49.7276 157.869C50.9827 157.869 51.9616 157.58 52.6644 157.003C53.3923 156.425 53.7563 155.647 53.7563 154.668V149.887C53.7563 148.857 53.3923 148.029 52.6644 147.402C51.9616 146.749 50.9827 146.423 49.7276 146.423C48.4977 146.423 47.5187 146.749 46.7908 147.402C46.0629 148.029 45.6989 148.857 45.6989 149.887V154.668C45.6989 155.647 46.0629 156.425 46.7908 157.003C47.5187 157.58 48.4977 157.869 49.7276 157.869ZM68.3721 161.897C67.2175 161.897 66.2511 161.672 65.473 161.22C64.6948 160.743 64.1803 160.065 63.9293 159.187L59.5993 142.808C59.8002 142.683 60.1014 142.582 60.503 142.507C60.9046 142.432 61.2937 142.394 61.6702 142.394C62.4232 142.394 63.0507 142.57 63.5528 142.921C64.0799 143.247 64.4062 143.687 64.5317 144.239L66.7531 154.367L66.2637 156.438L66.4896 156.513L69.8782 143.938C70.0288 143.486 70.2924 143.122 70.6689 142.846C71.0454 142.545 71.5349 142.394 72.1373 142.394C72.7648 142.394 73.2794 142.545 73.681 142.846C74.0826 143.122 74.3462 143.486 74.4717 143.938L77.1826 154.631L76.6178 156.815L76.8437 156.89L79.7429 144.239C79.8684 143.687 80.1947 143.247 80.7218 142.921C81.2489 142.57 81.889 142.394 82.6421 142.394C83.0437 142.394 83.4327 142.432 83.8092 142.507C84.2109 142.582 84.5121 142.683 84.7129 142.808L80.383 159.187C80.1571 160.04 79.6048 160.705 78.7263 161.182C77.8478 161.659 76.8186 161.897 75.6389 161.897L71.7984 146.762L71.6102 146.837L72.0243 148.456L68.3721 161.897ZM98.0415 137.499C98.0415 136.872 98.28 136.332 98.7569 135.88C99.2589 135.428 99.8613 135.203 100.564 135.203H117.62C117.62 136.709 117.357 137.813 116.83 138.516C116.328 139.194 115.499 139.532 114.345 139.532H103.087V145.896H113.102C113.102 147.402 112.839 148.506 112.311 149.209C111.809 149.887 110.981 150.225 109.826 150.225H103.087V158.321C103.087 159.576 102.685 160.492 101.882 161.069C101.079 161.621 99.7986 161.897 98.0415 161.897V137.499ZM121.831 140.624C120.927 140.624 120.174 140.361 119.572 139.834C118.994 139.281 118.706 138.579 118.706 137.725C118.706 136.897 118.994 136.219 119.572 135.692C120.174 135.14 120.927 134.864 121.831 134.864C122.734 134.864 123.475 135.14 124.052 135.692C124.655 136.219 124.956 136.897 124.956 137.725C124.956 138.579 124.655 139.281 124.052 139.834C123.475 140.361 122.734 140.624 121.831 140.624ZM119.459 145.256C119.459 144.226 119.848 143.498 120.626 143.072C121.404 142.62 122.584 142.394 124.165 142.394V159.036C124.165 160.04 123.776 160.768 122.998 161.22C122.22 161.672 121.04 161.897 119.459 161.897V145.256ZM129.405 146.009C129.405 144.854 129.769 143.963 130.497 143.335C131.25 142.708 132.38 142.394 133.886 142.394V144.653C133.585 145.004 133.284 145.406 132.982 145.858L133.208 146.009C133.961 144.879 134.928 144 136.107 143.373C137.287 142.72 138.592 142.394 140.023 142.394C141.303 142.394 142.433 142.683 143.412 143.26C144.391 143.837 145.144 144.628 145.671 145.632C146.223 146.636 146.499 147.766 146.499 149.021V159.036C146.499 160.04 146.11 160.768 145.332 161.22C144.554 161.672 143.374 161.897 141.793 161.897V149.698C141.793 148.745 141.504 147.966 140.927 147.364C140.375 146.762 139.559 146.46 138.479 146.46C137.199 146.46 136.145 146.862 135.317 147.665C134.488 148.443 134.074 149.422 134.074 150.602V159.036C134.074 160.04 133.698 160.768 132.945 161.22C132.192 161.672 131.012 161.897 129.405 161.897V146.009Z" fill="url(#paint6_linear_1_2116)"/>
<defs>
<linearGradient id="paint0_linear_1_2116" x1="74.5214" y1="0" x2="74.5214" y2="116.803" gradientUnits="userSpaceOnUse">
<stop stop-color="#00BE0D"/>
<stop offset="1" stop-color="#92B700"/>
</linearGradient>
<linearGradient id="paint1_linear_1_2116" x1="74.5104" y1="21.5542" x2="74.5104" y2="58.118" gradientUnits="userSpaceOnUse">
<stop stop-color="#00BE0D"/>
<stop offset="1" stop-color="#92B700"/>
</linearGradient>
<linearGradient id="paint2_linear_1_2116" x1="74.4902" y1="108.178" x2="74.4902" y2="71.6145" gradientUnits="userSpaceOnUse">
<stop stop-color="#00BE0D"/>
<stop offset="1" stop-color="#92B700"/>
</linearGradient>
<linearGradient id="paint3_linear_1_2116" x1="74.4895" y1="130.016" x2="74.4895" y2="13.2124" gradientUnits="userSpaceOnUse">
<stop stop-color="#00BE0D"/>
<stop offset="1" stop-color="#92B700"/>
</linearGradient>
<linearGradient id="paint4_linear_1_2116" x1="55.7059" y1="57.9834" x2="55.7059" y2="66.7872" gradientUnits="userSpaceOnUse">
<stop stop-color="#00BE0D"/>
<stop offset="1" stop-color="#92B700"/>
</linearGradient>
<linearGradient id="paint5_linear_1_2116" x1="60.0276" y1="51.4473" x2="60.0276" y2="41.3119" gradientUnits="userSpaceOnUse">
<stop stop-color="#00BE0D"/>
<stop offset="1" stop-color="#92B700"/>
</linearGradient>
<linearGradient id="paint6_linear_1_2116" x1="74.5" y1="122.559" x2="74.5" y2="171.559" gradientUnits="userSpaceOnUse">
<stop stop-color="#00BE0D"/>
<stop offset="1" stop-color="#92B700"/>
</linearGradient>
</defs>
</svg>
