<svg width="117" height="131" viewBox="0 0 117 131" fill="none" xmlns="http://www.w3.org/2000/svg">
<path d="M116.923 58.4016C116.923 42.9126 110.77 28.0579 99.8176 17.1054C88.8652 6.15301 74.0105 1.16939e-06 58.5214 0C43.0323 -1.16939e-06 28.1777 6.15301 17.2252 17.1054C6.2728 28.0579 0.119784 42.9125 0.119781 58.4016H14.5022C14.5022 46.727 19.1399 35.5305 27.3951 27.2753C35.6503 19.0201 46.8468 14.3824 58.5214 14.3824C70.196 14.3824 81.3925 19.0201 89.6477 27.2753C97.9029 35.5305 102.541 46.727 102.541 58.4016H116.923Z" fill="url(#paint0_linear_1_2117)"/>
<path d="M95.0742 58.118C95.0742 48.4207 91.2219 39.1205 84.3649 32.2635C77.5078 25.4064 68.2077 21.5542 58.5104 21.5542C48.8131 21.5542 39.5129 25.4064 32.6559 32.2635C25.7989 39.1205 21.9466 48.4206 21.9466 58.118H30.9511C30.9511 50.8088 33.8546 43.7989 39.023 38.6306C44.1914 33.4622 51.2012 30.5586 58.5104 30.5586C65.8196 30.5586 72.8294 33.4622 77.9978 38.6306C83.1661 43.799 84.3649 50.8088 84.3649 58.118L95.0742 58.118Z" fill="url(#paint1_linear_1_2117)"/>
<path d="M95.0539 71.6145C95.0539 81.3118 91.2017 90.6119 84.3446 97.4689C77.4876 104.326 68.1875 108.178 58.4902 108.178C48.7928 108.178 39.4927 104.326 32.6357 97.4689C25.7786 90.6119 21.9264 81.3118 21.9264 71.6145H30.9308C30.9308 78.9237 33.8344 85.9335 39.0028 91.1018C44.1711 96.2702 51.181 99.1738 58.4902 99.1738C65.7993 99.1738 72.8092 96.2702 77.9775 91.1018C83.1459 85.9335 51.3364 78.9236 51.3364 71.6145H95.0539Z" fill="url(#paint2_linear_1_2117)"/>
<path d="M0.0878983 71.614C0.0878983 87.1031 6.24091 101.958 17.1933 112.91C28.1458 123.863 43.0004 130.016 58.4895 130.016C73.9786 130.016 88.8333 123.863 99.7857 112.91C110.738 101.958 116.891 87.1031 116.891 71.614H102.509C102.509 83.2886 97.871 94.4851 89.6158 102.74C81.3606 110.996 70.1641 115.633 58.4895 115.633C46.8149 115.633 35.6184 110.996 27.3632 102.74C19.108 94.4851 14.4703 83.2886 14.4703 71.614H0.0878983Z" fill="url(#paint3_linear_1_2117)"/>
<path d="M21.9466 57.9834H52.608C55.2906 57.9834 57.4653 60.1581 57.4653 62.8406V66.7872H21.9466V57.9834Z" fill="url(#paint4_linear_1_2117)"/>
<path d="M25.7726 51.3262L60.2792 51.3262C62.9617 51.3262 65.1364 49.1516 65.1364 46.469V42.5225L25.9999 41.3119C20.607 53.1592 23.4636 51.3713 25.7726 51.3262Z" fill="url(#paint5_linear_1_2117)"/>
<defs>
<linearGradient id="paint0_linear_1_2117" x1="58.5214" y1="0" x2="58.5214" y2="116.803" gradientUnits="userSpaceOnUse">
<stop stop-color="#00BE0D"/>
<stop offset="1" stop-color="#92B700"/>
</linearGradient>
<linearGradient id="paint1_linear_1_2117" x1="58.5104" y1="21.5542" x2="58.5104" y2="58.118" gradientUnits="userSpaceOnUse">
<stop stop-color="#00BE0D"/>
<stop offset="1" stop-color="#92B700"/>
</linearGradient>
<linearGradient id="paint2_linear_1_2117" x1="58.4902" y1="108.178" x2="58.4902" y2="71.6145" gradientUnits="userSpaceOnUse">
<stop stop-color="#00BE0D"/>
<stop offset="1" stop-color="#92B700"/>
</linearGradient>
<linearGradient id="paint3_linear_1_2117" x1="58.4895" y1="130.016" x2="58.4895" y2="13.2124" gradientUnits="userSpaceOnUse">
<stop stop-color="#00BE0D"/>
<stop offset="1" stop-color="#92B700"/>
</linearGradient>
<linearGradient id="paint4_linear_1_2117" x1="39.7059" y1="57.9834" x2="39.7059" y2="66.7872" gradientUnits="userSpaceOnUse">
<stop stop-color="#00BE0D"/>
<stop offset="1" stop-color="#92B700"/>
</linearGradient>
<linearGradient id="paint5_linear_1_2117" x1="44.0276" y1="51.4473" x2="44.0276" y2="41.3119" gradientUnits="userSpaceOnUse">
<stop stop-color="#00BE0D"/>
<stop offset="1" stop-color="#92B700"/>
</linearGradient>
</defs>
</svg>
