<svg width="26" height="27" viewBox="0 0 26 27" fill="none" xmlns="http://www.w3.org/2000/svg">
<path fill-rule="evenodd" clip-rule="evenodd" d="M7.97742 0.342818C9.27848 0.27926 9.69331 0.265137 13.0075 0.265137C16.3217 0.265137 16.7365 0.280437 18.0365 0.342818C19.3364 0.405198 20.2238 0.625293 21.0002 0.944256C21.8132 1.27028 22.5508 1.77991 23.1608 2.43902C23.782 3.08519 24.2611 3.8667 24.5673 4.73061C24.869 5.5545 25.0753 6.49608 25.1352 7.87315C25.1951 9.25611 25.2084 9.6963 25.2084 13.2119C25.2084 16.7288 25.1939 17.169 25.1352 18.5496C25.0764 19.9266 24.869 20.8682 24.5673 21.6921C24.2611 22.5561 23.7812 23.3389 23.1608 23.986C22.5508 24.6452 21.8132 25.1536 21.0002 25.4785C20.2238 25.7986 19.3364 26.0175 18.0387 26.0811C16.7365 26.1446 16.3217 26.1588 13.0075 26.1588C9.69331 26.1588 9.27848 26.1435 7.97742 26.0811C6.67969 26.0187 5.79236 25.7986 5.01594 25.4785C4.20172 25.1536 3.46401 24.6443 2.85417 23.986C2.23345 23.3395 1.75311 22.5571 1.44663 21.6933C1.14605 20.8694 0.939741 19.9278 0.879846 18.5507C0.819951 17.1678 0.806641 16.7276 0.806641 13.2119C0.806641 9.69512 0.82106 9.25493 0.879846 7.87551C0.938632 6.49608 1.14605 5.5545 1.44663 4.73061C1.75356 3.8668 2.23427 3.08438 2.85528 2.43785C3.46426 1.77933 4.20122 1.26962 5.01483 0.944256C5.79125 0.625293 6.67858 0.406375 7.97631 0.342818H7.97742ZM17.9378 2.67324C16.6511 2.61086 16.2651 2.59792 13.0075 2.59792C9.74987 2.59792 9.36388 2.61086 8.07725 2.67324C6.88711 2.73092 6.24157 2.9416 5.81121 3.11932C5.24221 3.35472 4.83514 3.63366 4.40811 4.0868C4.00332 4.50469 3.69179 5.01342 3.49638 5.57568C3.32889 6.03235 3.13035 6.71736 3.076 7.98026C3.01722 9.34556 3.00501 9.75515 3.00501 13.2119C3.00501 16.6687 3.01722 17.0783 3.076 18.4436C3.13035 19.7065 3.32889 20.3915 3.49638 20.8482C3.69159 21.4096 4.00327 21.9193 4.40811 22.3371C4.80187 22.7667 5.28214 23.0974 5.81121 23.3046C6.24157 23.4823 6.88711 23.693 8.07725 23.7506C9.36388 23.813 9.74876 23.826 13.0075 23.826C16.2662 23.826 16.6511 23.813 17.9378 23.7506C19.1279 23.693 19.7734 23.4823 20.2038 23.3046C20.7728 23.0692 21.1799 22.7902 21.6069 22.3371C22.0117 21.9193 22.3234 21.4096 22.5186 20.8482C22.6861 20.3915 22.8847 19.7065 22.939 18.4436C22.9978 17.0783 23.01 16.6687 23.01 13.2119C23.01 9.75515 22.9978 9.34556 22.939 7.98026C22.8847 6.71736 22.6861 6.03235 22.5186 5.57568C22.2968 4.97189 22.0339 4.53994 21.6069 4.0868C21.2131 3.65728 20.7336 3.32672 20.2038 3.11932C19.7734 2.9416 19.1279 2.73092 17.9378 2.67324ZM11.4491 17.2031C12.3194 17.5875 13.2885 17.6394 14.1909 17.3499C15.0933 17.0604 15.8729 16.4474 16.3967 15.6156C16.9205 14.7839 17.1559 13.785 17.0627 12.7895C16.9695 11.7941 16.5535 10.8638 15.8858 10.1577C15.4601 9.70627 14.9455 9.36064 14.3788 9.14564C13.8122 8.93065 13.2076 8.85165 12.6088 8.91433C12.0099 8.97701 11.4315 9.17981 10.9154 9.50813C10.3992 9.83646 9.95811 10.2821 9.62376 10.8131C9.28941 11.344 9.07016 11.947 8.98179 12.5787C8.89342 13.2103 8.93813 13.8549 9.1127 14.466C9.28727 15.0772 9.58736 15.6396 9.99136 16.1129C10.3954 16.5862 10.8932 16.9585 11.4491 17.2031ZM8.57304 8.50637C9.15539 7.88842 9.84673 7.39824 10.6076 7.06381C11.3685 6.72938 12.1839 6.55726 13.0075 6.55726C13.8311 6.55726 14.6466 6.72938 15.4074 7.06381C16.1683 7.39824 16.8596 7.88842 17.442 8.50637C18.0243 9.12431 18.4862 9.85792 18.8014 10.6653C19.1166 11.4727 19.2788 12.338 19.2788 13.2119C19.2788 14.0859 19.1166 14.9512 18.8014 15.7586C18.4862 16.566 18.0243 17.2996 17.442 17.9175C16.2659 19.1655 14.6707 19.8666 13.0075 19.8666C11.3443 19.8666 9.74914 19.1655 8.57304 17.9175C7.39695 16.6695 6.73623 14.9769 6.73623 13.2119C6.73623 11.447 7.39695 9.75437 8.57304 8.50637ZM20.6696 7.54831C20.814 7.40385 20.9295 7.23014 21.0094 7.03746C21.0893 6.84478 21.132 6.63705 21.1348 6.42656C21.1377 6.21607 21.1008 6.0071 21.0262 5.81203C20.9516 5.61696 20.8409 5.43975 20.7007 5.2909C20.5604 5.14204 20.3934 5.02457 20.2096 4.94543C20.0257 4.86629 19.8288 4.82709 19.6304 4.83016C19.4321 4.83323 19.2363 4.8785 19.0547 4.96329C18.8731 5.04809 18.7094 5.17068 18.5733 5.32381C18.3086 5.62162 18.1636 6.01719 18.1692 6.42656C18.1749 6.83592 18.3306 7.22685 18.6034 7.51634C18.8763 7.80584 19.2447 7.97111 19.6304 7.97708C20.0162 7.98305 20.389 7.82924 20.6696 7.54831Z" fill="white"/>
</svg>
