<svg width="25" height="22" viewBox="0 0 25 22" fill="none" xmlns="http://www.w3.org/2000/svg">
<path d="M24.392 3.34778C23.5256 3.75517 22.5949 4.03043 21.6164 4.15485C22.626 3.51381 23.3813 2.50489 23.7414 1.31634C22.7929 1.9142 21.7548 2.33503 20.6722 2.56053C19.9442 1.73569 18.9799 1.18898 17.9291 1.00527C16.8782 0.821556 15.7997 1.01112 14.8608 1.54454C13.9219 2.07795 13.1752 2.92537 12.7367 3.95523C12.2982 4.98509 12.1923 6.13976 12.4356 7.23998C10.5136 7.13758 8.63344 6.60749 6.91702 5.6841C5.2006 4.76071 3.68633 3.46467 2.47249 1.88008C2.05745 2.6398 1.8188 3.52064 1.8188 4.45874C1.81834 5.30323 2.01432 6.1348 2.38936 6.87965C2.7644 7.62449 3.3069 8.2596 3.96873 8.7286C3.20118 8.70268 2.45057 8.48261 1.77937 8.08669V8.15275C1.77929 9.33719 2.16539 10.4852 2.87216 11.4019C3.57893 12.3187 4.56283 12.9477 5.65692 13.1823C4.94489 13.3868 4.19839 13.4169 3.47379 13.2704C3.78247 14.2896 4.38377 15.1808 5.19349 15.8193C6.00321 16.4578 6.98082 16.8116 7.98947 16.8312C6.27724 18.2575 4.16264 19.0312 1.98585 19.0278C1.60026 19.0279 1.21499 19.004 0.832031 18.9562C3.0416 20.4638 5.61369 21.2638 8.24057 21.2607C17.1329 21.2607 21.9941 13.4455 21.9941 6.66744C21.9941 6.44723 21.9889 6.22482 21.9796 6.00461C22.9251 5.27899 23.7413 4.38045 24.3899 3.35108L24.392 3.34778Z" fill="white"/>
</svg>
